# AST/ASF file generated using VICON BodyLanguage
# -----------------------------------------------
:version 1.10
:name VICON
:units
  mass 1.0
  length 0.45
  angle deg
:documentation
   .ast/.asf automatically generated from VICON data using
   VICON BodyBuilder and BodyLanguage model FoxedUp or BRILLIANT.MOD
:root
   order TX TY TZ RX RY RZ
   axis XYZ
   position 0 0 0  
   orientation 0 0 0 
:bonedata
  begin
     id 1 
     name lhipjoint
     direction 0.558404 -0.748506 0.357664 
     length 2.4234 
     axis 0 0 0  XYZ
  end
  begin
     id 2 
     name lfemur
     direction 0.34202 -0.939693 0  
     length 7.14567  
     axis 0 0 20  XYZ
    dof rx ry rz
    limits (-160.0 20.0)
           (-70.0 70.0)
           (-60.0 70.0)
  end
  begin
     id 3 
     name ltibia
     direction 0.34202 -0.939693 0   
     length 8.13956   
     axis 0 0 20   XYZ
    dof rx
    limits (-10.0 170.0)
  end
  begin
     id 4 
     name lfoot
     direction 0.0791314 -0.217412 0.972867   
     length 2.00134   
     axis -90 7.62852e-016 20   XYZ
    dof rx rz
    limits (-45.0 90.0)
           (-70.0 20.0)
  end
  begin
     id 5 
     name ltoes
     direction 1.53547e-011 -4.21922e-011 1   
     length 1.00735   
     axis -90 7.62852e-016 20   XYZ
    dof rx
    limits (-90.0 20.0)
  end
  begin
     id 6 
     name rhipjoint
     direction -0.496392 -0.78327 0.374276   
     length 2.31584  
     axis 0 0 0  XYZ 
  end
  begin
     id 7 
     name rfemur
     direction -0.34202 -0.939693 0   
     length 7.47417   
     axis 0 0 -20   XYZ
    dof rx ry rz
    limits (-160.0 20.0)
           (-70.0 70.0)
           (-70.0 60.0)
  end
  begin
     id 8 
     name rtibia
     direction -0.34202 -0.939693 0   
     length 7.69071   
     axis 0 0 -20   XYZ
    dof rx
    limits (-10.0 170.0)
 end
 begin
     id 9 
     name rfoot
     direction -0.103069 -0.28318 0.953512   
     length 2.16135  
     axis -90 -7.62852e-016 -20   XYZ
    dof rx rz
    limits (-45.0 90.0)
           (-20.0 70.0)
  end
  begin
     id 10 
     name rtoes
     direction -1.53581e-011 -4.21904e-011 1   
     length 1.07867   
     axis -90 -7.62852e-016 -20   XYZ
    dof rx
    limits (-90.0 20.0)
  end
  begin
     id 11 
     name lowerback
     direction -0.0258961 0.994776 -0.0987407   
     length 2.19412   
     axis 0 0 0   XYZ
    dof rx ry rz
    limits (-20.0 45.0)
           (-30.0 30.0)
           (-30.0 30.0)
  end
  begin
     id 12 
     name upperback
     direction 0.0402454 0.999185 0.00320666   
     length 2.18445   
     axis 0 0 0   XYZ
    dof rx ry rz
    limits (-20.0 45.0)
           (-30.0 30.0)
           (-30.0 30.0)
  end
  begin
     id 13 
     name thorax
     direction 0.0519376 0.997415 0.0496558   
     length 2.21487   
     axis 0 0 0   XYZ
    dof rx ry rz
    limits (-20.0 45.0)
           (-30.0 30.0)
           (-30.0 30.0)
  end
  begin
     id 14 
     name lowerneck
     direction -0.0921276 0.983211 0.157506   
     length 1.61201   
     axis 0 0 0   XYZ
    dof rx ry rz
    limits (-20.0 45.0)
           (-30.0 30.0)
           (-30.0 30.0)
  end
  begin
     id 15 
     name upperneck
     direction 0.0820814 0.98162 -0.172292   
     length 1.65275   
     axis 0 0 0   XYZ
    dof rx ry rz
    limits (-20.0 45.0)
           (-30.0 30.0)
           (-30.0 30.0)
  end
  begin
     id 16
     name head
     direction 0.0336554 0.996413 -0.0776455  
     length 1.66415  
     axis 0 0 0   XYZ
    dof rx ry rz
    limits (-20.0 45.0)
           (-30.0 30.0)
           (-30.0 30.0)
  end
  begin
     id 17 
     name lclavicle
     direction 0.94696 0.284418 -0.149576  
     length 3.41447  
     axis 0 0 0   XYZ
    dof ry rz
    limits (-20.0 10.0)
           (0.0 20.0)
  end
  begin
     id 18 
     name lhumerus
     direction 1 -0.000130264 -9.81312e-005   
     length 5.19964   
     axis 180 -30 -90   XYZ
    dof rx ry rz
    limits (-60.0 90.0)
           (-90.0 90.0)
           (-90.0 90.0)
  end
  begin
     id 19
     name lradius
     direction 1 -4.48961e-011 1.43854e-026   
     length 3.32189   
     axis 180 -30 -90   XYZ
    dof rx
    limits (-10.0 170.0)
  end
  begin
     id 20
     name lwrist
     direction 1 -4.48958e-011 3.1502e-026   
     length 1.66095   
     axis -1.97692e-014 90 90   XYZ
    dof ry
    limits (-180.0 0.0)
 end
  begin
     id 21 
     name lhand
     direction 1 -4.48927e-011 6.3004e-026   
     length 0.645616   
     axis -4.02019e-014 90 90   XYZ
    dof rx rz
    limits (-90.0 90.0)
           (-45.0 45.0)
  end
  begin
     id 22 
     name lfingers
     direction 1 -4.4904e-011 1.26008e-025   
     length 0.520512   
     axis -8.04039e-014 90 90   XYZ
    dof rx
    limits (0.0 90.0)
  end
  begin
     id 23
     name lthumb
     direction 0.707107 -6.34947e-011 0.707107   
     length 0.747354   
     axis -90 45 2.85299e-015   XYZ
    dof rx rz
    limits (-45.0 45.0)
           (-45.0 45.0)
  end
  begin
     id 24 
     name rclavicle
     direction -0.909391 0.383475 -0.161107   
     length 3.25176  
     axis 0 0 0   XYZ 
    dof ry rz
    limits (-10.0 20.0)
           (-20.0 0.0)
  end
  begin
     id 25 
     name rhumerus
     direction -1 -4.48965e-011 -1.81384e-027  
     length 5.6595   
     axis 180 30 90   XYZ
    dof rx ry rz
    limits (-90.0 60.0)
           (-90.0 90.0)
           (-90.0 90.0)
  end
  begin
     id 26 
     name rradius
     direction -1 -4.48996e-011 -8.09397e-027   
     length 3.37604   
     axis 180 30 90   XYZ
    dof rx
    limits (-10.0 170.0)
  end
  begin
     id 27 
     name rwrist
     direction -1 -4.48927e-011 -1.56669e-026   
     length 1.68802   
     axis 1.21142e-014 -90 -90   XYZ
    dof ry
    limits (-180.0 0.0)
  end
  begin
     id 28
     name rhand
     direction -1 -4.48912e-011 -3.13339e-026   
     length 0.824702   
     axis 1.99937e-014 -90 -90   XYZ
    dof rx rz
    limits (-90.0 90.0)
           (-45.0 45.0)
  end
  begin
     id 29
     name rfingers
     direction -1 -4.49011e-011 -6.26677e-026   
     length 0.664896   
     axis 3.99874e-014 -90 -90   XYZ
    dof rx
    limits (0.0 90.0)
  end
  begin
     id 30
     name rthumb
     direction -0.707107 -6.34931e-011 0.707107   
     length 0.954662   
     axis -90 -45 -2.85299e-015   XYZ
    dof rx rz
    limits (-45.0 45.0)
           (-45.0 45.0)
  end
:hierarchy
  begin
    root lhipjoint rhipjoint lowerback
    lhipjoint lfemur
    lfemur ltibia
    ltibia lfoot
    lfoot ltoes
    rhipjoint rfemur
    rfemur rtibia
    rtibia rfoot
    rfoot rtoes
    lowerback upperback
    upperback thorax
    thorax lowerneck lclavicle rclavicle
    lowerneck upperneck
    upperneck head
    lclavicle lhumerus
    lhumerus lradius
    lradius lwrist
    lwrist lhand lthumb
    lhand lfingers
    rclavicle rhumerus
    rhumerus rradius
    rradius rwrist
    rwrist rhand rthumb
    rhand rfingers
  end

#!OML:ASF F:\VICON\USERDATA\INSTALL\rory3\rory3.ASF
:FULLY-SPECIFIED
:DEGREES
94
root 11.5327 17.5137 -38.1016 6.22671 -19.3426 -2.97624
lowerback 5.57366 -0.466873 -1.66971
upperback -2.49629 -0.528315 4.54488
thorax -5.68292 -0.111712 5.76876
lowerneck -13.3479 -4.52839 -13.9788
upperneck 19.0266 -5.22173 9.49545
head 8.76212 -2.55389 4.95799
rclavicle -2.17172e-014 -9.54166e-015
rhumerus -36.2629 -13.448 -73.9061
rradius 28.8989
rwrist -12.4856
rhand -13.2718 17.3357
rfingers 7.12502
rthumb 12.8312 -12.2499
lclavicle -2.17172e-014 -9.54166e-015
lhumerus -32.2498 11.9666 88.7132
lradius 25.4772
lwrist -10.2989
lhand -3.6758 33.2682
lfingers 7.12502
lthumb 22.0653 62.0293
rfemur -14.5714 3.57163 27.3172
rtibia 41.7096
rfoot -29.701 -10.2682
rtoes 24.1309
lfemur -23.0525 0.0581072 -15.7184
ltibia 55.4636
lfoot -20.0958 2.97114
ltoes -6.91233
95
root 11.5196 17.5108 -38.0802 6.2742 -19.2079 -2.97484
lowerback 5.73475 -0.523241 -1.7024
upperback -2.52383 -0.60227 4.59551
thorax -5.79558 -0.143097 5.85425
lowerneck -13.3608 -4.38226 -14.0904
upperneck 18.979 -5.02945 9.68976
head 8.7303 -2.45162 5.06898
rclavicle 2.18166e-014 -4.77083e-015
rhumerus -36.2368 -13.2356 -73.9538
rradius 28.9203
rwrist -12.6075
rhand -13.5523 17.1697
rfingers 7.12502
rthumb 12.5607 -12.4327
lclavicle 2.18166e-014 -4.77083e-015
lhumerus -32.2944 12.228 88.6164
lradius 25.4421
lwrist -10.2893
lhand -3.79587 33.3207
lfingers 7.12502
lthumb 21.95 62.0954
rfemur -14.496 3.39814 27.3492
rtibia 41.6614
rfoot -29.7551 -10.1704
rtoes 24.1289
lfemur -23.7123 -0.0334109 -15.5232
ltibia 56.4329
lfoot -18.6577 1.84115
ltoes -4.32157
96
root 11.5058 17.5159 -38.0614 6.35908 -18.9838 -2.78165
lowerback 5.93621 -0.580245 -1.91842
upperback -2.694 -0.690564 4.60292
thorax -6.07955 -0.168262 6.00636
lowerneck -13.2498 -4.26975 -14.1472
upperneck 19.0804 -4.88168 9.68884
head 8.72599 -2.39093 5.09989
rclavicle 9.91439e-014 -2.14687e-014
rhumerus -36.4241 -13.0768 -73.8758
rradius 28.9273
rwrist -12.6148
rhand -13.7502 17.1843
rfingers 7.12502
rthumb 12.37 -12.4297
lclavicle 9.91439e-014 -2.14687e-014
lhumerus -32.5343 12.4846 88.5045
lradius 25.4097
lwrist -10.505
lhand -3.74005 33.5115
lfingers 7.12502
lthumb 22.0036 62.2799
rfemur -14.5484 3.01056 27.1716
rtibia 41.6445
rfoot -29.7599 -10.0859
rtoes 23.2703
lfemur -24.4911 -0.301637 -15.545
ltibia 57.3401
lfoot -18.72 1.96798
ltoes -5.61093
97
root 11.4951 17.5122 -38.0435 6.37956 -18.8894 -2.85279
lowerback 6.14668 -0.552615 -1.78989
upperback -2.69618 -0.642905 4.57008
thorax -6.20941 -0.147258 5.89808
lowerneck -13.2175 -4.21683 -13.9176
upperneck 19.0152 -4.83262 9.56467
head 8.68188 -2.36275 5.0219
rclavicle 4.86029e-014 1.74931e-014
rhumerus -36.4996 -13.1575 -73.9835
rradius 29.1014
rwrist -13.0408
rhand -13.8127 16.9351
rfingers 7.12502
rthumb 12.3097 -12.6826
lclavicle 4.86029e-014 1.74931e-014
lhumerus -32.4779 12.5119 88.3275
lradius 25.1841
lwrist -10.8894
lhand -3.5233 33.5077
lfingers 7.12502
lthumb 22.2117 62.2514
rfemur -14.4481 2.8518 27.2766
rtibia 41.6364
rfoot -29.8312 -10.1558
rtoes 22.4511
lfemur -24.9262 -0.240291 -15.3705
ltibia 58.2341
lfoot -17.3162 0.497082
ltoes 0.988245
98
root 11.487 17.4932 -38.0157 6.37877 -18.9107 -3.08795
lowerback 6.08851 -0.521236 -1.41802
upperback -2.49034 -0.577302 4.52253
thorax -5.96774 -0.139728 5.61864
lowerneck -13.3033 -4.15357 -13.6687
upperneck 18.8266 -4.77991 9.58392
head 8.61977 -2.3127 4.98851
rclavicle 2.20651e-014 -7.95139e-016
rhumerus -36.2455 -13.6843 -74.053
rradius 28.9686
rwrist -12.895
rhand -13.7034 16.9008
rfingers 7.12502
rthumb 12.415 -12.7105
lclavicle 2.20651e-014 -7.95139e-016
lhumerus -32.1517 12.376 88.1586
lradius 24.8786
lwrist -10.9951
lhand -3.71715 33.0474
lfingers 7.12502
lthumb 22.0256 61.8132
rfemur -14.2285 2.87413 27.526
rtibia 41.6167
rfoot -29.997 -10.1591
rtoes 22.6681
lfemur -25.4173 -0.026085 -14.9632
ltibia 59.1317
lfoot -16.1848 -0.724935
ltoes 3.64695
99
root 11.4757 17.4848 -37.9785 6.51312 -18.9492 -3.32713
lowerback 5.64408 -0.530658 -1.04787
upperback -2.21059 -0.574298 4.50373
thorax -5.4209 -0.168111 5.36696
lowerneck -13.3595 -4.07844 -13.5083
upperneck 18.5569 -4.69884 9.64435
head 8.52493 -2.25147 4.98629
rclavicle -3.23025e-015 1.43125e-014
rhumerus -35.8457 -14.1493 -74.0955
rradius 28.6925
rwrist -12.2707
rhand -13.4911 17.2484
rfingers 7.12502
rthumb 12.6198 -12.3504
lclavicle -3.23025e-015 1.43125e-014
lhumerus -31.7619 12.4586 88.0047
lradius 24.7164
lwrist -10.8336
lhand -4.17353 32.6456
lfingers 7.12502
lthumb 21.5873 61.4623
rfemur -14.0783 2.89695 27.7588
rtibia 41.518
rfoot -30.0809 -10.1053
rtoes 22.9271
lfemur -25.9648 0.0364227 -14.5719
ltibia 59.982
lfoot -15.6257 -1.33955
ltoes 3.16851
100
root 11.4643 17.4879 -37.9338 6.5969 -19.2075 -3.49279
lowerback 5.56593 -0.388592 -0.854843
upperback -2.14704 -0.372238 4.50164
thorax -5.33054 -0.0771835 5.23072
lowerneck -13.2669 -4.06226 -13.4123
upperneck 18.4821 -4.71313 9.67869
head 8.48252 -2.24938 4.97935
rclavicle 2.71341e-014 2.38542e-015
rhumerus -35.9483 -13.9287 -74.2443
rradius 28.9713
rwrist -12.7144
rhand -13.4844 17.2092
rfingers 7.12502
rthumb 12.6262 -12.3892
lclavicle 2.71341e-014 2.38542e-015
lhumerus -31.8317 13.0049 87.6209
lradius 24.9102
lwrist -12.273
lhand -2.42285 33.5591
lfingers 7.12502
lthumb 23.2678 62.1732
rfemur -13.8902 2.96383 27.8688
rtibia 41.4065
rfoot -30.0775 -10.0238
rtoes 22.1101
lfemur -26.3569 0.0678678 -14.3175
ltibia 60.7848
lfoot -15.3807 -1.66184
ltoes 2.5431
101
root 11.4553 17.4929 -37.879 6.61184 -19.6825 -3.66177
lowerback 5.66614 -0.164639 -0.588728
upperback -2.14146 -0.0528427 4.43911
thorax -5.41228 0.0722895 4.9818
lowerneck -13.3084 -4.0758 -13.226
upperneck 18.6776 -4.77154 9.63668
head 8.5571 -2.26955 4.93034
rclavicle -3.79679e-014 1.66979e-014
rhumerus -36.1955 -13.9768 -74.2585
rradius 29.1222
rwrist -12.9535
rhand -13.4412 17.3555
rfingers 7.12502
rthumb 12.6679 -12.2404
lclavicle -3.79679e-014 1.66979e-014
lhumerus -31.9314 12.6844 87.6239
lradius 24.7736
lwrist -11.5678
lhand -3.23709 33.3267
lfingers 7.12502
lthumb 22.4864 62.0375
rfemur -13.5906 3.10048 27.925
rtibia 41.2631
rfoot -30.078 -9.83247
rtoes 21.1302
lfemur -26.5479 0.256178 -14.121
ltibia 61.5126
lfoot -15.5201 -1.82241
ltoes 1.56531
102
root 11.4439 17.4789 -37.8541 6.72429 -19.4083 -3.83364
lowerback 5.8973 -0.243611 -0.439159
upperback -2.18854 -0.136525 4.52562
thorax -5.58664 0.0302386 5.00219
lowerneck -13.4468 -4.04875 -13.1188
upperneck 18.8313 -4.7167 9.48855
head 8.62129 -2.24881 4.86941
rclavicle 4.57205e-015 -2.38542e-014
rhumerus -36.2213 -13.8997 -74.2046
rradius 29.1352
rwrist -12.8789
rhand -13.5268 17.4021
rfingers 7.12502
rthumb 12.5853 -12.1988
lclavicle 4.57205e-015 -2.38542e-014
lhumerus -31.8878 12.7491 87.6242
lradius 24.4702
lwrist -11.1129
lhand -4.02433 32.9751
lfingers 7.12502
lthumb 21.7306 61.7754
rfemur -13.4817 3.00255 28.18
rtibia 41.1502
rfoot -30.0886 -10.0276
rtoes 20.7523
lfemur -27.2094 0.0390301 -13.7419
ltibia 62.2823
lfoot -15.652 -2.29696
ltoes 1.09794
